<svg width="23" height="20" viewBox="0 0 23 20" fill="none" xmlns="http://www.w3.org/2000/svg">
<path d="M22.25 4.46875C22.1239 3.9753 21.9293 3.50194 21.6718 3.0625C21.4245 2.60536 21.1083 2.18902 20.7343 1.82812C20.1921 1.28771 19.55 0.857859 18.8437 0.562499C17.4221 -0.020955 15.8278 -0.020955 14.4062 0.562499C13.7386 0.845059 13.1253 1.24159 12.5937 1.73437L12.5156 1.82812L11.5 2.84375L10.4843 1.82812L10.4062 1.73437C9.87456 1.24159 9.26125 0.845059 8.5937 0.562499C7.17207 -0.020955 5.57783 -0.020955 4.1562 0.562499C3.44992 0.857859 2.80781 1.28771 2.26558 1.82812C1.52396 2.54973 0.998968 3.4644 0.749951 4.46875C0.617474 4.97878 0.554405 5.50436 0.562451 6.03125C0.562451 6.52656 0.624951 7.02031 0.749951 7.5C0.880941 7.98444 1.0698 8.45135 1.31245 8.89063C1.57451 9.3422 1.89498 9.75724 2.26558 10.125L11.5 19.3594L20.7343 10.125C21.1046 9.76094 21.4218 9.34375 21.6718 8.89063C22.1793 8.0236 22.4438 7.03585 22.4375 6.03125C22.4456 5.50435 22.3825 4.97877 22.25 4.46875Z" fill="#574AE8"/>
</svg>
